{
  "source": "C:\\Users\\Peter\\Desktop\\stuff\\MIUN\\quantitative_research\\video_compression\\videos\\BVI-HD\\BVI-HD_CDVL_videos\\ORIG\\FishAndRock_1920x1080_30fps.mp4",
  "output": "C:\\Users\\Peter\\Desktop\\stuff\\MIUN\\quantitative_research\\video_compression\\compressed_videos\\BVI-HD\\h264\\1\\FishAndRock_1920x1080_30fps_h264.mp4",
  "codec": "h264",
  "ok": "Input #0, mov,mp4,m4a,3gp,3g2,mj2, from 'C:\\Users\\Peter\\Desktop\\stuff\\MIUN\\quantitative_research\\video_compression\\videos\\BVI-HD\\BVI-HD_CDVL_videos\\ORIG\\FishAndRock_1920x1080_30fps.mp4':\n  Metadata:\n    major_brand     : isom\n    minor_version   : 512\n    compatible_brands: isomiso2avc1mp41\n    encoder         : Lavf54.28.101\n  Duration: 00:00:05.00, start: 0.000000, bitrate: 251564 kb/s\n  Stream #0:0[0x1](und): Video: h264 (High 4:4:4 Predictive) (avc1 / 0x31637661), yuv420p(progressive), 1920x1080, 251561 kb/s, 30 fps, 30 tbr, 30 tbn (default)\n    Metadata:\n      handler_name    : VideoHandler\n      vendor_id       : [0][0][0][0]\n[out#0/mp4 @ 00000191431b9a40] Codec AVOption b:a (set bitrate (in bits/s)) has not been used for any stream. The most likely reason is either wrong type (e.g. a video option with no video streams) or that it is a private option of some decoder which was not actually used for any stream.\nStream mapping:\n  Stream #0:0 -> #0:0 (h264 (native) -> h264 (libx264))\nPress [q] to stop, [?] for help\n[libx264 @ 0000019143f175c0] using cpu capabilities: MMX2 SSE2Fast SSSE3 SSE4.2 AVX FMA3 BMI2 AVX2\n[libx264 @ 0000019143f175c0] profile High, level 5.0, 4:2:0, 8-bit\n[libx264 @ 0000019143f175c0] 264 - core 165 r3222 b35605a - H.264/MPEG-4 AVC codec - Copyleft 2003-2025 - http://www.videolan.org/x264.html - options: cabac=1 ref=5 deblock=1:0:0 analyse=0x3:0x113 me=hex subme=8 psy=1 psy_rd=1.00:0.00 mixed_ref=1 me_range=16 chroma_me=1 trellis=2 8x8dct=1 cqm=0 deadzone=21,11 fast_pskip=1 chroma_qp_offset=-2 threads=18 lookahead_threads=3 sliced_threads=0 nr=0 decimate=1 interlaced=0 bluray_compat=0 constrained_intra=0 bframes=3 b_pyramid=2 b_adapt=1 b_bias=0 direct=3 weightb=1 open_gop=0 weightp=2 keyint=250 keyint_min=25 scenecut=40 intra_refresh=0 rc_lookahead=50 rc=cbr mbtree=1 bitrate=1000 ratetol=1.0 qcomp=0.60 qpmin=0 qpmax=69 qpstep=4 vbv_maxrate=1000 vbv_bufsize=1000 nal_hrd=none filler=0 ip_ratio=1.40 aq=1:1.00\nOutput #0, mp4, to 'C:\\Users\\Peter\\Desktop\\stuff\\MIUN\\quantitative_research\\video_compression\\compressed_videos\\BVI-HD\\h264\\1\\FishAndRock_1920x1080_30fps_h264.mp4':\n  Metadata:\n    major_brand     : isom\n    minor_version   : 512\n    compatible_brands: isomiso2avc1mp41\n    encoder         : Lavf62.3.100\n  Stream #0:0(und): Video: h264 (avc1 / 0x31637661), yuv420p(tv, progressive), 1920x1080, q=2-31, 1000 kb/s, 30 fps, 15360 tbn (default)\n    Metadata:\n      encoder         : Lavc62.11.100 libx264\n      handler_name    : VideoHandler\n      vendor_id       : [0][0][0][0]\n    Side data:\n      cpb: bitrate max/min/avg: 1000000/0/1000000 buffer size: 1000000 vbv_delay: N/A\nframe=    0 fps=0.0 q=0.0 size=       0KiB time=N/A bitrate=N/A speed=N/A elapsed=0:00:00.52    \nframe=    0 fps=0.0 q=0.0 size=       0KiB time=N/A bitrate=N/A speed=N/A elapsed=0:00:01.10    \nframe=    0 fps=0.0 q=0.0 size=       0KiB time=N/A bitrate=N/A speed=N/A elapsed=0:00:01.66    \nframe=   18 fps=8.1 q=43.0 size=       0KiB time=00:00:00.53 bitrate=   0.7kbits/s speed=0.239x elapsed=0:00:02.23    \nframe=   46 fps= 16 q=43.0 size=       0KiB time=00:00:01.46 bitrate=   0.3kbits/s speed=0.519x elapsed=0:00:02.82    \nframe=   77 fps= 23 q=44.0 size=       0KiB time=00:00:02.36 bitrate=   0.2kbits/s speed=0.698x elapsed=0:00:03.39    \nframe=  102 fps= 26 q=44.0 size=     256KiB time=00:00:03.33 bitrate= 629.3kbits/s speed=0.84x elapsed=0:00:03.96    \nframe=  138 fps= 31 q=-1.0 size=     256KiB time=00:00:04.33 bitrate= 484.0kbits/s speed=0.959x elapsed=0:00:04.52    \n[mp4 @ 00000191431c14c0] Starting second pass: moving the moov atom to the beginning of the file\n[out#0/mp4 @ 00000191431b9a40] video:510KiB audio:0KiB subtitle:0KiB other streams:0KiB global headers:0KiB muxing overhead: 0.502846%\nframe=  150 fps= 32 q=-1.0 Lsize=     513KiB time=00:00:04.93 bitrate= 851.4kbits/s speed=1.05x elapsed=0:00:04.70    \n[libx264 @ 0000019143f175c0] frame I:1     Avg QP:40.80  size: 23729\n[libx264 @ 0000019143f175c0] frame P:39    Avg QP:40.77  size:  7180\n[libx264 @ 0000019143f175c0] frame B:110   Avg QP:44.34  size:  1981\n[libx264 @ 0000019143f175c0] consecutive B-frames:  1.3%  0.0%  8.0% 90.7%\n[libx264 @ 0000019143f175c0] mb I  I16..4: 28.1% 70.6%  1.3%\n[libx264 @ 0000019143f175c0] mb P  I16..4:  0.8%  1.6%  0.0%  P16..4: 33.3%  1.6%  3.3%  0.0%  0.0%    skip:59.4%\n[libx264 @ 0000019143f175c0] mb B  I16..4:  0.0%  0.0%  0.0%  B16..8: 26.9%  0.1%  0.0%  direct: 0.0%  skip:72.9%  L0:35.5% L1:64.4% BI: 0.1%\n[libx264 @ 0000019143f175c0] 8x8 transform intra:69.4% inter:96.1%\n[libx264 @ 0000019143f175c0] direct mvs  spatial:92.7% temporal:7.3%\n[libx264 @ 0000019143f175c0] coded y,uvDC,uvAC intra: 23.4% 20.4% 0.3% inter: 1.3% 1.1% 0.0%\n[libx264 @ 0000019143f175c0] i16 v,h,dc,p: 30% 34%  8% 29%\n[libx264 @ 0000019143f175c0] i8 v,h,dc,ddl,ddr,vr,hd,vl,hu:  6%  3% 33%  8% 13%  9% 13%  6%  8%\n[libx264 @ 0000019143f175c0] i4 v,h,dc,ddl,ddr,vr,hd,vl,hu:  2%  1%  3% 17% 21% 12% 19%  7% 18%\n[libx264 @ 0000019143f175c0] i8c dc,h,v,p: 89%  8%  2%  1%\n[libx264 @ 0000019143f175c0] Weighted P-Frames: Y:35.9% UV:15.4%\n[libx264 @ 0000019143f175c0] ref P L0: 72.4%  9.8% 10.9%  3.6%  2.4%  0.8%  0.0%\n[libx264 @ 0000019143f175c0] ref B L0: 95.8%  3.0%  0.9%  0.3%\n[libx264 @ 0000019143f175c0] ref B L1: 98.4%  1.6%\n[libx264 @ 0000019143f175c0] kb/s:834.66\n",
  "seconds": 5.200039625167847,
  "probe_out": {}
}